<svg width="56" height="26" xmlns="http://www.w3.org/2000/svg">
 <title/>

 <desc/>
 <g>
  <title>background</title>
  <rect fill="none" id="canvas_background" height="402" width="582" y="-1" x="-1"/>
 </g>
 <g>
  <title>Layer 1</title>
  <path id="Shape" fill-rule="nonzero" d="m55.98,1.57c0.06837,-0.35706 -0.06632,-0.72265 -0.35,-0.95c-0.31707,-0.2618 -0.75561,-0.32002 -1.13,-0.15l-21.5,9.19l0,1.12l3.8,-0.76c0.54124,-0.11046 1.06954,0.23876 1.18,0.78c0.11046,0.54124 -0.23876,1.06954 -0.78,1.18l-4.2,0.84l0,0.44l9.29,2.78c0.53019,0.16016 0.83016,0.71981 0.67,1.25c-0.16016,0.53019 -0.71981,0.83016 -1.25,0.67l-8.71,-2.62l0,1l21.5,9.19c0.37439,0.17002 0.81293,0.1118 1.13,-0.15c0.28368,-0.22735 0.41837,-0.59294 0.35,-0.95c-1.56,-7.54016 -1.56,-15.31984 0,-22.86zm-12.66,8.38l-2,0.67c-0.10404,0.0305 -0.21161,0.0473 -0.32,0.05c-0.49274,0.00386 -0.91485,-0.35178 -0.99464,-0.83803c-0.0798,-0.48625 0.20651,-0.95815 0.67464,-1.11197l2,-0.67c0.52467,-0.17673 1.09327,0.10533 1.27,0.63c0.17673,0.52467 -0.10533,1.09327 -0.63,1.27z"/>
  <path id="Shape" fill-rule="nonzero" d="m1.05,0.38c-0.24739,0.00021 -0.48728,0.08488 -0.68,0.24c-0.28368,0.22735 -0.41837,0.59294 -0.35,0.95c1.56,7.54016 1.56,15.31984 0,22.86c-0.06837,0.35706 0.06632,0.72265 0.35,0.95c0.31707,0.2618 0.75561,0.32002 1.13,0.15l21.5,-9.19l0,-1l-8.71,2.62c-0.53019,0.16016 -1.08984,-0.13981 -1.25,-0.67c-0.16016,-0.53019 0.13981,-1.08984 0.67,-1.25l9.29,-2.78l0,-0.44l-4.2,-0.84c-0.54124,-0.11046 -0.89046,-0.63876 -0.78,-1.18c0.11046,-0.54124 0.63876,-0.89046 1.18,-0.78l3.8,0.76l0,-1.12l-21.5,-9.19c-0.14281,-0.05867 -0.29561,-0.08923 -0.45,-0.09zm11,8.3c0.18052,-0.52135 0.74568,-0.80171 1.27,-0.63l2,0.67c0.46813,0.15382 0.75444,0.62572 0.67464,1.11197c-0.07979,0.48625 -0.5019,0.84189 -0.99464,0.83803c-0.10839,-0.0027 -0.21596,-0.0195 -0.32,-0.05l-2,-0.67c-0.52135,-0.18052 -0.80171,-0.74568 -0.63,-1.27z"/>
  <path id="Path" d="m28,6c-1.65685,0 -3,1.34315 -3,3l0,8c0,1.65685 1.34315,3 3,3c1.65685,0 3,-1.34315 3,-3l0,-8c0,-1.65685 -1.34315,-3 -3,-3z"/>
 </g>
</svg>